<svg width="150" height="77" viewBox="0 0 150 77" fill="none" xmlns="http://www.w3.org/2000/svg">
<path d="M15.596 26.472V30H1.82V26.136C1.82 25.1093 1.96933 24.232 2.268 23.504C2.58533 22.776 3.024 22.16 3.584 21.656C4.16267 21.152 4.85333 20.7413 5.656 20.424C6.45867 20.088 7.364 19.808 8.372 19.584C9.11867 19.416 9.72533 19.2293 10.192 19.024C10.6773 18.8 11.06 18.5573 11.34 18.296C11.62 18.016 11.8067 17.7173 11.9 17.4C12.012 17.064 12.068 16.6907 12.068 16.28C12.068 15.496 11.7787 14.8427 11.2 14.32C10.64 13.7973 9.856 13.536 8.848 13.536C7.784 13.536 6.93467 13.8627 6.3 14.516C5.66533 15.1507 5.348 16.0373 5.348 17.176V18.408H1.652V16.84C1.652 15.9253 1.81067 15.0573 2.128 14.236C2.464 13.396 2.93067 12.668 3.528 12.052C4.144 11.4173 4.89067 10.9227 5.768 10.568C6.64533 10.1947 7.63467 10.008 8.736 10.008C9.912 10.008 10.9387 10.1853 11.816 10.54C12.6933 10.876 13.4213 11.324 14 11.884C14.5973 12.444 15.036 13.0973 15.316 13.844C15.6147 14.572 15.764 15.328 15.764 16.112V16.448C15.764 18.0907 15.2973 19.4533 14.364 20.536C13.4493 21.6187 11.9467 22.4027 9.856 22.888C8.97867 23.0933 8.25067 23.308 7.672 23.532C7.112 23.7373 6.67333 23.9707 6.356 24.232C6.03867 24.4933 5.81467 24.7827 5.684 25.1C5.572 25.3987 5.516 25.744 5.516 26.136V26.472H15.596ZM23.6405 10.4H30.6405V22.776H33.4965V26.304H30.6405V30H26.9445V26.304H18.2085V21.208L23.6405 10.4ZM21.4005 22.272V22.776H26.9445V12.248H26.4405L21.4005 22.272ZM40.5051 20.2C40.5051 19.5653 40.7384 19.0147 41.2051 18.548C41.6717 18.0813 42.2224 17.848 42.8571 17.848C43.4917 17.848 44.0424 18.0813 44.5091 18.548C44.9757 19.0147 45.2091 19.5653 45.2091 20.2C45.2091 20.8347 44.9757 21.3853 44.5091 21.852C44.0424 22.3187 43.4917 22.552 42.8571 22.552C42.2224 22.552 41.6717 22.3187 41.2051 21.852C40.7384 21.3853 40.5051 20.8347 40.5051 20.2ZM35.6331 18.016C35.6331 15.4773 36.2677 13.508 37.5371 12.108C38.8251 10.708 40.5984 10.008 42.8571 10.008C45.1157 10.008 46.8797 10.708 48.1491 12.108C49.4371 13.508 50.0811 15.4773 50.0811 18.016V22.384C50.0811 24.9973 49.4371 26.9853 48.1491 28.348C46.8797 29.7107 45.1157 30.392 42.8571 30.392C40.5984 30.392 38.8251 29.7107 37.5371 28.348C36.2677 26.9853 35.6331 24.9973 35.6331 22.384V18.016ZM42.8571 27.032C43.5291 27.032 44.0891 26.9293 44.5371 26.724C44.9851 26.5 45.3491 26.192 45.6291 25.8C45.9091 25.408 46.1051 24.9413 46.2171 24.4C46.3291 23.8587 46.3851 23.2613 46.3851 22.608V17.792C46.3851 17.176 46.3197 16.5973 46.1891 16.056C46.0584 15.5147 45.8531 15.048 45.5731 14.656C45.2931 14.264 44.9291 13.956 44.4811 13.732C44.0331 13.4893 43.4917 13.368 42.8571 13.368C42.2224 13.368 41.6811 13.4893 41.2331 13.732C40.7851 13.956 40.4211 14.264 40.1411 14.656C39.8611 15.048 39.6557 15.5147 39.5251 16.056C39.3944 16.5973 39.3291 17.176 39.3291 17.792V22.608C39.3291 23.2613 39.3851 23.8587 39.4971 24.4C39.6091 24.9413 39.8051 25.408 40.0851 25.8C40.3651 26.192 40.7291 26.5 41.1771 26.724C41.6251 26.9293 42.1851 27.032 42.8571 27.032ZM58.2656 21.208H58.9376L62.6336 16.112H66.4976V16.28L62.0176 22.636V23.14L66.9456 29.832V30H62.9136L58.9376 24.568H58.2656V30H54.7376V10.4H58.2656V21.208ZM71.2941 18.604H75.5501V14.348H78.7421V18.604H82.9981V21.796H78.7421V26.052H75.5501V21.796H71.2941V18.604Z" fill="white"/>
<path d="M13.1705 66H15.2097L9.06822 50.1666H6.78917L0.62374 66H2.6389L4.3182 61.6098H11.4912L13.1705 66ZM5.01391 59.8106L7.17301 54.1249L7.86872 51.9898H7.9167L8.66039 54.1969L10.7955 59.8106H5.01391ZM23.7299 53.7651C21.8586 53.7651 20.5632 54.5088 19.8915 55.9722L19.6276 54.005H18.0682V66H19.9874V59.5227C19.9874 56.8358 21.7147 55.5643 23.1541 55.5643C23.7778 55.5643 24.3056 55.6843 24.6655 55.8762L25.0493 54.005C24.6895 53.8131 24.1377 53.7651 23.7299 53.7651ZM33.804 63.553C33.2522 64.1048 32.6285 64.4406 31.7648 64.4406C30.7093 64.4406 29.9656 63.8649 29.9656 62.6894V55.6603H34.4037V54.005H29.9656V50.5984L28.0464 51.1262V54.005H25.6474V55.6603H28.0464V63.0252C28.0704 65.3523 29.6057 66.2399 31.381 66.2399C32.7004 66.2399 33.732 65.8321 34.4757 65.1604L33.804 63.553ZM38.1448 51.702C39.0085 51.702 39.5842 51.1262 39.5842 50.2626C39.5842 49.3989 39.0085 48.8232 38.1448 48.8232C37.2812 48.8232 36.7054 49.3989 36.7054 50.2626C36.7054 51.1262 37.2812 51.702 38.1448 51.702ZM39.1044 54.005H37.1852V66H39.1044V54.005ZM47.6359 66.2399C50.7066 66.2399 52.6498 64.7765 52.6498 62.6894C52.6498 60.7222 51.4503 59.7146 48.0917 59.1628C45.6447 58.755 44.8531 58.2272 44.8531 57.1957C44.8531 56.308 46.0526 55.4444 47.6599 55.4444C49.1713 55.4444 50.2508 56.0202 50.7786 57.6035L52.4099 56.6439C51.7382 54.6767 50.2268 53.7651 47.6599 53.7651C44.7331 53.7651 42.9339 55.4204 42.9339 57.3636C42.9339 59.3788 44.1813 60.3144 47.5879 60.9381C49.9869 61.3699 50.7306 61.8977 50.7306 62.7853C50.7306 63.7689 49.795 64.5606 47.8278 64.5606C46.1005 64.5606 44.6132 63.9129 44.0374 62.4495L42.478 63.529C43.3897 65.3763 45.4288 66.2399 47.6359 66.2399ZM62.8778 63.553C62.326 64.1048 61.7023 64.4406 60.8386 64.4406C59.7831 64.4406 59.0394 63.8649 59.0394 62.6894V55.6603H63.4775V54.005H59.0394V50.5984L57.1202 51.1262V54.005H54.7212V55.6603H57.1202V63.0252C57.1442 65.3523 58.6795 66.2399 60.4548 66.2399C61.7743 66.2399 62.8058 65.8321 63.5495 65.1604L62.8778 63.553ZM70.3374 66.2399C73.4081 66.2399 75.3513 64.7765 75.3513 62.6894C75.3513 60.7222 74.1518 59.7146 70.7932 59.1628C68.3462 58.755 67.5545 58.2272 67.5545 57.1957C67.5545 56.308 68.754 55.4444 70.3614 55.4444C71.8727 55.4444 72.9523 56.0202 73.4801 57.6035L75.1114 56.6439C74.4397 54.6767 72.9283 53.7651 70.3614 53.7651C67.4346 53.7651 65.6353 55.4204 65.6353 57.3636C65.6353 59.3788 66.8828 60.3144 70.2894 60.9381C72.6884 61.3699 73.4321 61.8977 73.4321 62.7853C73.4321 63.7689 72.4965 64.5606 70.5293 64.5606C68.802 64.5606 67.3146 63.9129 66.7389 62.4495L65.1795 63.529C66.0911 65.3763 68.1303 66.2399 70.3374 66.2399Z" fill="white"/>
</svg>
