<svg width="150" height="77" viewBox="0 0 150 77" fill="none" xmlns="http://www.w3.org/2000/svg">
<path d="M7.392 26.472V12.248H6.888L5.04 18.968H1.512V18.632L3.864 10.4H11.088V26.472H15.96V30H1.848V26.472H7.392ZM23.3605 20.2C23.3605 19.5653 23.5939 19.0147 24.0605 18.548C24.5272 18.0813 25.0779 17.848 25.7125 17.848C26.3472 17.848 26.8979 18.0813 27.3645 18.548C27.8312 19.0147 28.0645 19.5653 28.0645 20.2C28.0645 20.8347 27.8312 21.3853 27.3645 21.852C26.8979 22.3187 26.3472 22.552 25.7125 22.552C25.0779 22.552 24.5272 22.3187 24.0605 21.852C23.5939 21.3853 23.3605 20.8347 23.3605 20.2ZM18.4885 18.016C18.4885 15.4773 19.1232 13.508 20.3925 12.108C21.6805 10.708 23.4539 10.008 25.7125 10.008C27.9712 10.008 29.7352 10.708 31.0045 12.108C32.2925 13.508 32.9365 15.4773 32.9365 18.016V22.384C32.9365 24.9973 32.2925 26.9853 31.0045 28.348C29.7352 29.7107 27.9712 30.392 25.7125 30.392C23.4539 30.392 21.6805 29.7107 20.3925 28.348C19.1232 26.9853 18.4885 24.9973 18.4885 22.384V18.016ZM25.7125 27.032C26.3845 27.032 26.9445 26.9293 27.3925 26.724C27.8405 26.5 28.2045 26.192 28.4845 25.8C28.7645 25.408 28.9605 24.9413 29.0725 24.4C29.1845 23.8587 29.2405 23.2613 29.2405 22.608V17.792C29.2405 17.176 29.1752 16.5973 29.0445 16.056C28.9139 15.5147 28.7085 15.048 28.4285 14.656C28.1485 14.264 27.7845 13.956 27.3365 13.732C26.8885 13.4893 26.3472 13.368 25.7125 13.368C25.0779 13.368 24.5365 13.4893 24.0885 13.732C23.6405 13.956 23.2765 14.264 22.9965 14.656C22.7165 15.048 22.5112 15.5147 22.3805 16.056C22.2499 16.5973 22.1845 17.176 22.1845 17.792V22.608C22.1845 23.2613 22.2405 23.8587 22.3525 24.4C22.4645 24.9413 22.6605 25.408 22.9405 25.8C23.2205 26.192 23.5845 26.5 24.0325 26.724C24.4805 26.9293 25.0405 27.032 25.7125 27.032ZM40.5051 20.2C40.5051 19.5653 40.7384 19.0147 41.2051 18.548C41.6717 18.0813 42.2224 17.848 42.8571 17.848C43.4917 17.848 44.0424 18.0813 44.5091 18.548C44.9757 19.0147 45.2091 19.5653 45.2091 20.2C45.2091 20.8347 44.9757 21.3853 44.5091 21.852C44.0424 22.3187 43.4917 22.552 42.8571 22.552C42.2224 22.552 41.6717 22.3187 41.2051 21.852C40.7384 21.3853 40.5051 20.8347 40.5051 20.2ZM35.6331 18.016C35.6331 15.4773 36.2677 13.508 37.5371 12.108C38.8251 10.708 40.5984 10.008 42.8571 10.008C45.1157 10.008 46.8797 10.708 48.1491 12.108C49.4371 13.508 50.0811 15.4773 50.0811 18.016V22.384C50.0811 24.9973 49.4371 26.9853 48.1491 28.348C46.8797 29.7107 45.1157 30.392 42.8571 30.392C40.5984 30.392 38.8251 29.7107 37.5371 28.348C36.2677 26.9853 35.6331 24.9973 35.6331 22.384V18.016ZM42.8571 27.032C43.5291 27.032 44.0891 26.9293 44.5371 26.724C44.9851 26.5 45.3491 26.192 45.6291 25.8C45.9091 25.408 46.1051 24.9413 46.2171 24.4C46.3291 23.8587 46.3851 23.2613 46.3851 22.608V17.792C46.3851 17.176 46.3197 16.5973 46.1891 16.056C46.0584 15.5147 45.8531 15.048 45.5731 14.656C45.2931 14.264 44.9291 13.956 44.4811 13.732C44.0331 13.4893 43.4917 13.368 42.8571 13.368C42.2224 13.368 41.6811 13.4893 41.2331 13.732C40.7851 13.956 40.4211 14.264 40.1411 14.656C39.8611 15.048 39.6557 15.5147 39.5251 16.056C39.3944 16.5973 39.3291 17.176 39.3291 17.792V22.608C39.3291 23.2613 39.3851 23.8587 39.4971 24.4C39.6091 24.9413 39.8051 25.408 40.0851 25.8C40.3651 26.192 40.7291 26.5 41.1771 26.724C41.6251 26.9293 42.1851 27.032 42.8571 27.032ZM58.2656 21.208H58.9376L62.6336 16.112H66.4976V16.28L62.0176 22.636V23.14L66.9456 29.832V30H62.9136L58.9376 24.568H58.2656V30H54.7376V10.4H58.2656V21.208ZM71.2941 18.604H75.5501V14.348H78.7421V18.604H82.9981V21.796H78.7421V26.052H75.5501V21.796H71.2941V18.604Z" fill="white"/>
<path d="M13.1705 66H15.2097L9.06822 50.1666H6.78917L0.62374 66H2.6389L4.3182 61.6098H11.4912L13.1705 66ZM5.01391 59.8106L7.17301 54.1249L7.86872 51.9898H7.9167L8.66039 54.1969L10.7955 59.8106H5.01391ZM26.3258 54.005V60.5303C26.3258 63.3611 24.5266 64.5606 22.4874 64.5606C20.7602 64.5606 19.6566 63.8169 19.6566 61.3459V54.005H17.7374V61.8497C17.7374 65.0164 19.7766 66.2399 22.1516 66.2399C24.0708 66.2399 25.6061 65.6162 26.4458 64.1768L26.5657 66H28.245V54.005H26.3258ZM37.7724 53.7651C34.15 53.7651 31.9669 56.1161 31.9669 60.0025C31.9669 63.8889 34.15 66.2399 37.7724 66.2399C40.3154 66.2399 42.0427 64.9204 42.8583 62.7134L41.0831 62.0896C40.7232 63.673 39.5957 64.5606 37.7245 64.5606C35.3255 64.5606 33.8861 62.8573 33.8861 60.0025C33.8861 57.1477 35.3255 55.4444 37.7245 55.4444C39.3798 55.4444 40.4113 56.284 40.9151 57.8194L42.7384 56.9558C41.8507 54.9886 40.2434 53.7651 37.7724 53.7651ZM52.921 63.553C52.3692 64.1048 51.7455 64.4406 50.8819 64.4406C49.8263 64.4406 49.0826 63.8649 49.0826 62.6894V55.6603H53.5208V54.005H49.0826V50.5984L47.1634 51.1262V54.005H44.7644V55.6603H47.1634V63.0252C47.1874 65.3523 48.7228 66.2399 50.498 66.2399C51.8175 66.2399 52.849 65.8321 53.5927 65.1604L52.921 63.553ZM57.2619 51.702C58.1255 51.702 58.7013 51.1262 58.7013 50.2626C58.7013 49.3989 58.1255 48.8232 57.2619 48.8232C56.3982 48.8232 55.8225 49.3989 55.8225 50.2626C55.8225 51.1262 56.3982 51.702 57.2619 51.702ZM58.2215 54.005H56.3023V66H58.2215V54.005ZM67.7365 53.7651C64.114 53.7651 61.9309 56.1161 61.9309 60.0025C61.9309 63.8889 64.114 66.2399 67.7365 66.2399C71.359 66.2399 73.5421 63.8889 73.5421 60.0025C73.5421 56.1161 71.359 53.7651 67.7365 53.7651ZM67.7365 55.4204C70.1595 55.4204 71.6229 57.1477 71.6229 60.0025C71.6229 62.8573 70.1595 64.5846 67.7365 64.5846C65.3135 64.5846 63.8501 62.8573 63.8501 60.0025C63.8501 57.1477 65.3135 55.4204 67.7365 55.4204ZM83.0997 53.7651C81.4444 53.7651 79.909 54.3648 79.0694 55.8762L78.9494 54.005H77.2701V66H79.1893V59.6187C79.1893 56.5479 81.1565 55.4444 82.9078 55.4444C84.5631 55.4444 85.8585 56.332 85.8585 58.9949V66H87.7777V58.3232C87.7777 55.2285 85.6666 53.7651 83.0997 53.7651ZM96.2016 66.2399C99.2723 66.2399 101.216 64.7765 101.216 62.6894C101.216 60.7222 100.016 59.7146 96.6574 59.1628C94.2104 58.755 93.4187 58.2272 93.4187 57.1957C93.4187 56.308 94.6182 55.4444 96.2256 55.4444C97.7369 55.4444 98.8165 56.0202 99.3443 57.6035L100.976 56.6439C100.304 54.6767 98.7925 53.7651 96.2256 53.7651C93.2988 53.7651 91.4995 55.4204 91.4995 57.3636C91.4995 59.3788 92.747 60.3144 96.1536 60.9381C98.5526 61.3699 99.2963 61.8977 99.2963 62.7853C99.2963 63.7689 98.3607 64.5606 96.3935 64.5606C94.6662 64.5606 93.1788 63.9129 92.6031 62.4495L91.0437 63.529C91.9554 65.3763 93.9945 66.2399 96.2016 66.2399Z" fill="white"/>
</svg>
