<svg width="150" height="77" viewBox="0 0 150 77" fill="none" xmlns="http://www.w3.org/2000/svg">
<path d="M15.596 26.472V30H1.82V26.136C1.82 25.1093 1.96933 24.232 2.268 23.504C2.58533 22.776 3.024 22.16 3.584 21.656C4.16267 21.152 4.85333 20.7413 5.656 20.424C6.45867 20.088 7.364 19.808 8.372 19.584C9.11867 19.416 9.72533 19.2293 10.192 19.024C10.6773 18.8 11.06 18.5573 11.34 18.296C11.62 18.016 11.8067 17.7173 11.9 17.4C12.012 17.064 12.068 16.6907 12.068 16.28C12.068 15.496 11.7787 14.8427 11.2 14.32C10.64 13.7973 9.856 13.536 8.848 13.536C7.784 13.536 6.93467 13.8627 6.3 14.516C5.66533 15.1507 5.348 16.0373 5.348 17.176V18.408H1.652V16.84C1.652 15.9253 1.81067 15.0573 2.128 14.236C2.464 13.396 2.93067 12.668 3.528 12.052C4.144 11.4173 4.89067 10.9227 5.768 10.568C6.64533 10.1947 7.63467 10.008 8.736 10.008C9.912 10.008 10.9387 10.1853 11.816 10.54C12.6933 10.876 13.4213 11.324 14 11.884C14.5973 12.444 15.036 13.0973 15.316 13.844C15.6147 14.572 15.764 15.328 15.764 16.112V16.448C15.764 18.0907 15.2973 19.4533 14.364 20.536C13.4493 21.6187 11.9467 22.4027 9.856 22.888C8.97867 23.0933 8.25067 23.308 7.672 23.532C7.112 23.7373 6.67333 23.9707 6.356 24.232C6.03867 24.4933 5.81467 24.7827 5.684 25.1C5.572 25.3987 5.516 25.744 5.516 26.136V26.472H15.596ZM23.6405 10.4H30.6405V22.776H33.4965V26.304H30.6405V30H26.9445V26.304H18.2085V21.208L23.6405 10.4ZM21.4005 22.272V22.776H26.9445V12.248H26.4405L21.4005 22.272ZM40.5051 20.2C40.5051 19.5653 40.7384 19.0147 41.2051 18.548C41.6717 18.0813 42.2224 17.848 42.8571 17.848C43.4917 17.848 44.0424 18.0813 44.5091 18.548C44.9757 19.0147 45.2091 19.5653 45.2091 20.2C45.2091 20.8347 44.9757 21.3853 44.5091 21.852C44.0424 22.3187 43.4917 22.552 42.8571 22.552C42.2224 22.552 41.6717 22.3187 41.2051 21.852C40.7384 21.3853 40.5051 20.8347 40.5051 20.2ZM35.6331 18.016C35.6331 15.4773 36.2677 13.508 37.5371 12.108C38.8251 10.708 40.5984 10.008 42.8571 10.008C45.1157 10.008 46.8797 10.708 48.1491 12.108C49.4371 13.508 50.0811 15.4773 50.0811 18.016V22.384C50.0811 24.9973 49.4371 26.9853 48.1491 28.348C46.8797 29.7107 45.1157 30.392 42.8571 30.392C40.5984 30.392 38.8251 29.7107 37.5371 28.348C36.2677 26.9853 35.6331 24.9973 35.6331 22.384V18.016ZM42.8571 27.032C43.5291 27.032 44.0891 26.9293 44.5371 26.724C44.9851 26.5 45.3491 26.192 45.6291 25.8C45.9091 25.408 46.1051 24.9413 46.2171 24.4C46.3291 23.8587 46.3851 23.2613 46.3851 22.608V17.792C46.3851 17.176 46.3197 16.5973 46.1891 16.056C46.0584 15.5147 45.8531 15.048 45.5731 14.656C45.2931 14.264 44.9291 13.956 44.4811 13.732C44.0331 13.4893 43.4917 13.368 42.8571 13.368C42.2224 13.368 41.6811 13.4893 41.2331 13.732C40.7851 13.956 40.4211 14.264 40.1411 14.656C39.8611 15.048 39.6557 15.5147 39.5251 16.056C39.3944 16.5973 39.3291 17.176 39.3291 17.792V22.608C39.3291 23.2613 39.3851 23.8587 39.4971 24.4C39.6091 24.9413 39.8051 25.408 40.0851 25.8C40.3651 26.192 40.7291 26.5 41.1771 26.724C41.6251 26.9293 42.1851 27.032 42.8571 27.032ZM58.2656 21.208H58.9376L62.6336 16.112H66.4976V16.28L62.0176 22.636V23.14L66.9456 29.832V30H62.9136L58.9376 24.568H58.2656V30H54.7376V10.4H58.2656V21.208ZM71.2941 18.604H75.5501V14.348H78.7421V18.604H82.9981V21.796H78.7421V26.052H75.5501V21.796H71.2941V18.604Z" fill="white"/>
<path d="M13.7223 50.1666H0.76768V51.9658H6.28538V66H8.20458V51.9658H13.7223V50.1666ZM19.124 53.7651C15.5015 53.7651 13.3184 56.1161 13.3184 60.0025C13.3184 63.8889 15.5015 66.2399 19.124 66.2399C22.7465 66.2399 24.9295 63.8889 24.9295 60.0025C24.9295 56.1161 22.7465 53.7651 19.124 53.7651ZM19.124 55.4204C21.547 55.4204 23.0103 57.1477 23.0103 60.0025C23.0103 62.8573 21.547 64.5846 19.124 64.5846C16.701 64.5846 15.2376 62.8573 15.2376 60.0025C15.2376 57.1477 16.701 55.4204 19.124 55.4204ZM35.1159 63.553C34.5642 64.1048 33.9404 64.4406 33.0768 64.4406C32.0212 64.4406 31.2775 63.8649 31.2775 62.6894V55.6603H35.7157V54.005H31.2775V50.5984L29.3583 51.1262V54.005H26.9593V55.6603H29.3583V63.0252C29.3823 65.3523 30.9177 66.2399 32.6929 66.2399C34.0124 66.2399 35.044 65.8321 35.7876 65.1604L35.1159 63.553ZM48.3331 64.6086C47.6614 64.6086 47.4215 64.3207 47.4215 63.7449V57.8434C47.4215 55.0606 45.4303 53.7651 42.6955 53.7651C40.3684 53.7651 38.4732 54.9166 37.8495 56.6919L39.2649 57.7234C39.9126 56.2121 41.1121 55.4444 42.6955 55.4444C44.4947 55.4444 45.5023 56.5 45.5023 58.0833V58.755L42.3116 59.2828C39.2169 59.8106 37.6336 61.226 37.6336 63.0252C37.6336 65.1843 39.4568 66.2399 41.7119 66.2399C43.2472 66.2399 44.8066 65.5922 45.5743 64.4646C45.7902 65.8081 46.5578 66.2399 47.7334 66.2399C48.3331 66.2399 48.8369 66.12 49.1728 66L49.2927 64.4886C49.0048 64.5606 48.645 64.6086 48.3331 64.6086ZM41.8078 64.5606C40.4404 64.5606 39.6247 64.0328 39.6247 63.0252C39.6247 61.8977 40.7043 61.202 42.8154 60.8182L45.5023 60.3144V61.9697C45.5023 63.553 43.727 64.5606 41.8078 64.5606ZM53.9085 48.4873H51.9893V63.0252C51.9893 65.2083 52.9249 66.2399 54.8681 66.2399C55.4919 66.2399 56.1396 66.12 56.6434 65.904L56.9553 64.0568C56.2595 64.3207 55.8517 64.3927 55.204 64.3927C54.2204 64.3927 53.9085 64.0088 53.9085 62.7853V48.4873ZM72.1968 49.9267C68.5263 49.9267 66.2952 52.0858 66.2952 54.6287C66.2952 57.0517 67.8306 58.3472 72.1008 59.0909C75.4354 59.6666 76.467 60.4583 76.467 61.8257C76.467 63.529 74.8357 64.4406 72.3887 64.4406C69.7978 64.4406 68.1665 63.2891 67.3268 61.4659L65.6715 62.8093C66.775 64.7765 68.9821 66.2399 72.3407 66.2399C76.0352 66.2399 78.4582 64.4406 78.4582 61.7298C78.4582 59.2828 76.9468 57.9394 72.7006 57.2197C69.366 56.6439 68.3104 55.9002 68.3104 54.4128C68.3104 52.9015 69.7018 51.7259 72.2208 51.7259C74.5478 51.7259 75.6993 52.5416 76.6589 54.6287L78.3142 53.2853C77.0907 51.0782 75.0996 49.9267 72.1968 49.9267ZM91.7213 64.6086C91.0495 64.6086 90.8096 64.3207 90.8096 63.7449V57.8434C90.8096 55.0606 88.8185 53.7651 86.0836 53.7651C83.7566 53.7651 81.8614 54.9166 81.2376 56.6919L82.653 57.7234C83.3008 56.2121 84.5003 55.4444 86.0836 55.4444C87.8829 55.4444 88.8904 56.5 88.8904 58.0833V58.755L85.6998 59.2828C82.6051 59.8106 81.0217 61.226 81.0217 63.0252C81.0217 65.1843 82.845 66.2399 85.1 66.2399C86.6354 66.2399 88.1947 65.5922 88.9624 64.4646C89.1783 65.8081 89.946 66.2399 91.1215 66.2399C91.7213 66.2399 92.2251 66.12 92.5609 66L92.6809 64.4886C92.393 64.5606 92.0331 64.6086 91.7213 64.6086ZM85.196 64.5606C83.8286 64.5606 83.0129 64.0328 83.0129 63.0252C83.0129 61.8977 84.0924 61.202 86.2036 60.8182L88.8904 60.3144V61.9697C88.8904 63.553 87.1152 64.5606 85.196 64.5606ZM97.2967 48.4873H95.3775V63.0252C95.3775 65.2083 96.3131 66.2399 98.2563 66.2399C98.88 66.2399 99.5278 66.12 100.032 65.904L100.343 64.0568C99.6477 64.3207 99.2399 64.3927 98.5922 64.3927C97.6086 64.3927 97.2967 64.0088 97.2967 62.7853V48.4873ZM113.098 59.3788C113.098 56.284 111.203 53.7651 107.724 53.7651C104.102 53.7651 102.063 56.1161 102.063 60.0025C102.063 63.8889 104.246 66.2399 107.868 66.2399C110.459 66.2399 111.947 65.2563 112.858 63.625L111.251 62.7853C110.819 63.9369 109.619 64.5606 107.868 64.5606C105.661 64.5606 104.198 63.1452 103.958 60.7222H113.002C113.05 60.3863 113.098 59.9305 113.098 59.3788ZM107.724 55.4444C109.763 55.4444 110.987 56.8118 111.251 59.0189H103.982C104.27 56.7638 105.589 55.4444 107.724 55.4444Z" fill="white"/>
</svg>
